# xmcd
#
# Track frame offsets:
#  182
#  18635
#  37917
#  54795
#  76392
#  103207
#  121157
#  141437
#
# Disc length: 2169 seconds
#
# Revision: 0
# Processed by: cddbd v1.5.1PL2 Copyright (c) Steve Scherf et al.
# Submitted via: Collectorz.com_Music_Collector 6.11
#
DISCID=62087708
DTITLE=Albert King - King Albert
DYEAR=1992
DGENRE=
TTITLE0=Love Shock
TTITLE1=You Upset Me Baby
TTITLE2=Chump Change
TTITLE3=Let Me Rock You Easy
TTITLE4=Boot Lace
TTITLE5=Love Mechanic
TTITLE6=Call My Job
TTITLE7=Good Time Charlie
EXTD=
EXTT0=
EXTT1=
EXTT2=
EXTT3=
EXTT4=
EXTT5=
EXTT6=
EXTT7=
PLAYORDER=
